<?xml version="1.0" ?><!DOCTYPE svg  PUBLIC '-//W3C//DTD SVG 1.1//EN'  'http://www.w3.org/Graphics/SVG/1.1/DTD/svg11.dtd'><svg enable-background="new 0 0 512 512" id="Layer_1" version="1.1" viewBox="0 0 512 512" xml:space="preserve" xmlns="http://www.w3.org/2000/svg" xmlns:xlink="http://www.w3.org/1999/xlink"><g><path d="M259.1,8.8c138.4-0.7,252.3,114.4,249,255.1C505.1,398,394,509,255.6,507.3C119,505.6,6.3,391.8,9.9,251.3   C13.3,117.8,123.4,8.2,259.1,8.8z M40.2,258.4C41.4,383.7,143,480.2,263,478c116.3-2.1,214.7-97,214.6-220.1   c0-125.4-102.5-222.2-222.8-219.9C138.4,40.3,40.9,135.3,40.2,258.4z"/><path d="M402,150.6c0,71.1,0,141.9,0,213c-95.1,0-190.2,0-285.6,0c0-70.8,0-141.7,0-213C211.3,150.6,306.4,150.6,402,150.6z    M259.8,280.7c-6.7-5.6-13.1-10.7-19.1-16.2c-2.8-2.6-4.6-2.4-7.5-0.1c-23.5,19.1-47.2,38-70.7,57.1c-1.3,1-2.1,3.3-2.2,5   c-0.2,9.8,0.1,19.7-0.2,29.5c-0.2,4.6,1.2,5.9,5.8,5.8c63.2-0.2,126.3-0.1,189.5-0.1c1.7,0,3.5,0,5.5,0c0-13.6,0.1-26.5-0.1-39.3   c0-1.2-0.9-2.9-2-3.6c-26.1-18.6-52.4-37.2-78.7-55.8C273.4,268.9,266.8,274.6,259.8,280.7z M259.3,238.9   c29.6-28.7,58.7-57,88.8-86.2c-59.2,0-116.6,0-174,0C202.3,181.2,230.2,209.5,259.3,238.9z M360.6,312.3c0-40,0-79.2,0-119.1   c-25.6,22.2-50.7,43.9-76,65.9C310.3,277.1,335.2,294.5,360.6,312.3z M232.5,257.5c-23.9-20.3-47.4-40.3-71.7-61   c0,39.9,0,78.6,0,118.3C185,295.5,208.6,276.6,232.5,257.5z"/></g></svg>