<?xml version="1.0" ?><!DOCTYPE svg  PUBLIC '-//W3C//DTD SVG 1.1//EN'  'http://www.w3.org/Graphics/SVG/1.1/DTD/svg11.dtd'><svg height="512px" style="enable-background:new 0 0 512 512;" version="1.1" viewBox="0 0 512 512" width="512px" xml:space="preserve" xmlns="http://www.w3.org/2000/svg" xmlns:xlink="http://www.w3.org/1999/xlink"><g id="_x31_12-gmail_x2C__email_x2C__mail"><path d="M376,16H136C69.726,16,16,69.726,16,136v240c0,66.274,53.726,120,120,120h240c66.274,0,120-53.726,120-120V136   C496,69.726,442.274,16,376,16z M369.513,128l-111.408,87.926L146.69,128H369.513z M375,376H141V200.063l111.924,86.055   c1.525,1.17,3.315,1.786,5.181,1.786c1.852,0,3.512-0.584,5.077-1.785L375,200.046V376z M426,347.165   C426,364.168,411.968,378,394.721,378H384V182.149l-125.95,96.866L132,182.176v195.821L122.059,378   C104.933,378,91,364.168,91,347.165V158.537C91,141.413,104.643,128,122.059,128h9.114c0.585,0,1.071-0.146,1.448-0.314   l125.482,99.02l125.558-98.988c0.373,0.158,0.829,0.283,1.368,0.283h9.691C411.968,128,426,141.699,426,158.537V347.165z"/></g><g id="Layer_1"/></svg>